<svg width="960" height="600" version="1.1" xmlns="http://www.w3.org/2000/svg"><g></g><g transform="translate(480,300)scale(1.185185194015503,1.185185194015503)"><text text-anchor="middle" transform="translate(170,96)rotate(-30.00000044529205)skewX(0)scale(0.9999999865388264,0.9999999865388264)" style="font-size: 79px; font-family: Impact; fill: rgb(214, 97, 107);">virtual</text><text text-anchor="middle" transform="translate(-134,137)rotate(-30.00000044529205)skewX(0)scale(0.9999999865388264,0.9999999865388264)" style="font-size: 10px; font-family: Impact; fill: rgb(156, 158, 222);">Network</text><text text-anchor="middle" transform="translate(-197,-40)rotate(-30.00000044529205)skewX(0)scale(0.9999999865388264,0.9999999865388264)" style="font-size: 100px; font-family: Impact; fill: rgb(231, 203, 148);">reality</text><text text-anchor="middle" transform="translate(118,-125)rotate(-30.000000445292052)scale(0.9999999865388264,0.9999999865388264)" style="font-size: 10px; font-family: Impact; fill: rgb(99, 121, 57);">Cancer</text><text text-anchor="middle" transform="translate(174,19)rotate(-59.99999955470795)skewX(0)scale(0.9999999865388264,0.9999999865388264)" style="font-size: 10px; font-family: Impact; fill: rgb(99, 121, 57);">Study</text><text text-anchor="middle" transform="translate(-209,-138)rotate(30.000000445292052)skewX(0)scale(0.9999999865388264,0.9999999865388264)" style="font-size: 10px; font-family: Impact; fill: rgb(214, 97, 107);">Tool</text><text text-anchor="middle" transform="translate(-115,2)rotate(0)skewX(0)scale(1,1)" style="font-size: 65px; font-family: Impact; fill: rgb(107, 110, 207);">using</text><text text-anchor="middle" transform="translate(197,15)rotate(-30.000000445292052)scale(0.9999999865388264,0.9999999865388264)" style="font-size: 10px; font-family: Impact; fill: rgb(231, 150, 156);">Topic</text><text text-anchor="middle" transform="translate(-172,80)rotate(-59.99999955470795)scale(0.9999999865388264,0.9999999865388264)" style="font-size: 10px; font-family: Impact; fill: rgb(132, 60, 57);">Malware</text><text text-anchor="middle" transform="translate(-279,-78)rotate(-30.00000044529205)scale(0.9999999865388264,0.9999999865388264)" style="font-size: 10px; font-family: Impact; fill: rgb(107, 110, 207);">networks</text><text text-anchor="middle" transform="translate(110,11)rotate(-59.99999955470795)skewX(0)scale(0.9999999865388264,0.9999999865388264)" style="font-size: 10px; font-family: Impact; fill: rgb(231, 186, 82);">topics</text><text text-anchor="middle" transform="translate(-34,-64)rotate(59.99999955470795)skewX(0)scale(0.9999999865388264,0.9999999865388264)" style="font-size: 44px; font-family: Impact; fill: rgb(123, 65, 115);">augmented</text><text text-anchor="middle" transform="translate(17,112)rotate(59.99999955470795)skewX(0)scale(0.9999999865388264,0.9999999865388264)" style="font-size: 44px; font-family: Impact; fill: rgb(156, 158, 222);">development</text><text text-anchor="middle" transform="translate(129,-13)rotate(0)scale(1,1)" style="font-size: 44px; font-family: Impact; fill: rgb(206, 219, 156);">classroom</text><text text-anchor="middle" transform="translate(217,177)rotate(0)scale(1,1)" style="font-size: 44px; font-family: Impact; fill: rgb(99, 121, 57);">Visualization</text><text text-anchor="middle" transform="translate(-120,99)rotate(-30.00000044529205)skewX(0)scale(0.9999999865388264,0.9999999865388264)" style="font-size: 44px; font-family: Impact; fill: rgb(165, 81, 148);">community</text><text text-anchor="middle" transform="translate(150,-3)rotate(0)scale(1,1)" style="font-size: 10px; font-family: Impact; fill: rgb(231, 186, 82);">HPCViz</text><text text-anchor="middle" transform="translate(195,115)rotate(30.000000445292052)scale(0.9999999865388264,0.9999999865388264)" style="font-size: 10px; font-family: Impact; fill: rgb(140, 109, 49);">Visualizing</text><text text-anchor="middle" transform="translate(9,-128)rotate(0)skewX(0)scale(1,1)" style="font-size: 10px; font-family: Impact; fill: rgb(165, 81, 148);">Monitoring</text><text text-anchor="middle" transform="translate(151,119)rotate(-59.99999955470795)scale(0.9999999865388264,0.9999999865388264)" style="font-size: 10px; font-family: Impact; fill: rgb(107, 110, 207);">Health</text><text text-anchor="middle" transform="translate(-91,20)rotate(59.99999955470795)skewX(0)scale(0.9999999865388264,0.9999999865388264)" style="font-size: 10px; font-family: Impact; fill: rgb(189, 158, 57);">Status</text><text text-anchor="middle" transform="translate(195,-66)rotate(30.00000044529205)skewX(0)scale(0.9999999865388264,0.9999999865388264)" style="font-size: 10px; font-family: Impact; fill: rgb(181, 207, 107);">High</text><text text-anchor="middle" transform="translate(124,23)rotate(-30.000000445292052)scale(0.9999999865388264,0.9999999865388264)" style="font-size: 10px; font-family: Impact; fill: rgb(231, 186, 82);">Performance</text><text text-anchor="middle" transform="translate(-71,-55)rotate(-30.000000445292052)skewX(0)scale(0.9999999865388264,0.9999999865388264)" style="font-size: 10px; font-family: Impact; fill: rgb(181, 207, 107);">Computing</text><text text-anchor="middle" transform="translate(-233,105)rotate(59.99999955470795)scale(0.9999999865388264,0.9999999865388264)" style="font-size: 10px; font-family: Impact; fill: rgb(206, 219, 156);">Systems</text><text text-anchor="middle" transform="translate(-231,3)rotate(30.000000445292052)skewX(0)scale(0.9999999865388264,0.9999999865388264)" style="font-size: 10px; font-family: Impact; fill: rgb(231, 203, 148);">VRescuer</text><text text-anchor="middle" transform="translate(-138,43)rotate(0)skewX(0)scale(1,1)" style="font-size: 10px; font-family: Impact; fill: rgb(57, 59, 121);">Application</text><text text-anchor="middle" transform="translate(-117,-57)rotate(30.00000044529205)scale(0.9999999865388264,0.9999999865388264)" style="font-size: 10px; font-family: Impact; fill: rgb(123, 65, 115);">Disaster</text><text text-anchor="middle" transform="translate(89,51)rotate(0)scale(1,1)" style="font-size: 10px; font-family: Impact; fill: rgb(165, 81, 148);">Response</text><text text-anchor="middle" transform="translate(-116,119)rotate(0)skewX(0)scale(1,1)" style="font-size: 10px; font-family: Impact; fill: rgb(206, 219, 156);">Training</text><text text-anchor="middle" transform="translate(90,-86)rotate(0)skewX(0)scale(1,1)" style="font-size: 10px; font-family: Impact; fill: rgb(82, 84, 163);">Creating</text><text text-anchor="middle" transform="translate(139,38)rotate(59.99999955470795)scale(0.9999999865388264,0.9999999865388264)" style="font-size: 10px; font-family: Impact; fill: rgb(132, 60, 57);">hype</text><text text-anchor="middle" transform="translate(-169,36)rotate(-30.000000445292052)scale(0.9999999865388264,0.9999999865388264)" style="font-size: 10px; font-family: Impact; fill: rgb(140, 109, 49);">Webbased</text><text text-anchor="middle" transform="translate(-203,18)rotate(-59.99999955470795)scale(0.9999999865388264,0.9999999865388264)" style="font-size: 10px; font-family: Impact; fill: rgb(173, 73, 74);">learners</text><text text-anchor="middle" transform="translate(-42,91)rotate(30.000000445292052)skewX(0)scale(0.9999999865388264,0.9999999865388264)" style="font-size: 10px; font-family: Impact; fill: rgb(214, 97, 107);">perspectives</text><text text-anchor="middle" transform="translate(-246,-97)rotate(0)scale(1,1)" style="font-size: 10px; font-family: Impact; fill: rgb(156, 158, 222);">MalViz</text><text text-anchor="middle" transform="translate(130,-55)rotate(30.00000044529205)scale(0.9999999865388264,0.9999999865388264)" style="font-size: 10px; font-family: Impact; fill: rgb(156, 158, 222);">Interactive</text><text text-anchor="middle" transform="translate(176,117)rotate(30.00000044529205)scale(0.9999999865388264,0.9999999865388264)" style="font-size: 10px; font-family: Impact; fill: rgb(231, 150, 156);">Tracing</text><text text-anchor="middle" transform="translate(80,-144)rotate(59.99999955470795)scale(0.9999999865388264,0.9999999865388264)" style="font-size: 10px; font-family: Impact; fill: rgb(107, 110, 207);">Predict</text><text text-anchor="middle" transform="translate(-193,29)rotate(-59.99999955470795)scale(0.9999999865388264,0.9999999865388264)" style="font-size: 10px; font-family: Impact; fill: rgb(156, 158, 222);">Saturated</text><text text-anchor="middle" transform="translate(170,-54)rotate(30.000000445292052)skewX(0)scale(0.9999999865388264,0.9999999865388264)" style="font-size: 10px; font-family: Impact; fill: rgb(99, 121, 57);">Thickness</text><text text-anchor="middle" transform="translate(-24,126)rotate(-30.00000044529205)skewX(0)scale(0.9999999865388264,0.9999999865388264)" style="font-size: 10px; font-family: Impact; fill: rgb(231, 186, 82);">TensorBoard</text><text text-anchor="middle" transform="translate(-93,144)rotate(-30.000000445292052)scale(0.9999999865388264,0.9999999865388264)" style="font-size: 10px; font-family: Impact; fill: rgb(156, 158, 222);">ComModeler</text><text text-anchor="middle" transform="translate(-73,107)rotate(30.00000044529205)skewX(0)scale(0.9999999865388264,0.9999999865388264)" style="font-size: 10px; font-family: Impact; fill: rgb(123, 65, 115);">Modeling</text><text text-anchor="middle" transform="translate(67,13)rotate(30.00000044529205)skewX(0)scale(0.9999999865388264,0.9999999865388264)" style="font-size: 10px; font-family: Impact; fill: rgb(173, 73, 74);">Detection</text><text text-anchor="middle" transform="translate(-83,-65)rotate(-30.000000445292052)scale(0.9999999865388264,0.9999999865388264)" style="font-size: 10px; font-family: Impact; fill: rgb(123, 65, 115);">Setting</text><text text-anchor="middle" transform="translate(-78,-91)rotate(-59.99999955470795)skewX(0)scale(0.9999999865388264,0.9999999865388264)" style="font-size: 10px; font-family: Impact; fill: rgb(165, 81, 148);">learning</text><text text-anchor="middle" transform="translate(-106,-166)rotate(0)skewX(0)scale(1,1)" style="font-size: 10px; font-family: Impact; fill: rgb(82, 84, 163);">environment</text><text text-anchor="middle" transform="translate(-166,53)rotate(0)skewX(0)scale(1,1)" style="font-size: 10px; font-family: Impact; fill: rgb(231, 150, 156);">Unity</text><text text-anchor="middle" transform="translate(-120,26)rotate(30.000000445292052)skewX(0)scale(0.9999999865388264,0.9999999865388264)" style="font-size: 10px; font-family: Impact; fill: rgb(82, 84, 163);">CancerLinker</text><text text-anchor="middle" transform="translate(140,-150)rotate(30.000000445292052)skewX(0)scale(0.9999999865388264,0.9999999865388264)" style="font-size: 10px; font-family: Impact; fill: rgb(206, 109, 189);">Explorations</text><text text-anchor="middle" transform="translate(241,86)rotate(-59.99999955470795)skewX(0)scale(0.9999999865388264,0.9999999865388264)" style="font-size: 10px; font-family: Impact; fill: rgb(231, 203, 148);">DycomDetector</text><text text-anchor="middle" transform="translate(277,63)rotate(30.00000044529205)scale(0.9999999865388264,0.9999999865388264)" style="font-size: 10px; font-family: Impact; fill: rgb(57, 59, 121);">Discover</text><text text-anchor="middle" transform="translate(-247,23)rotate(-59.99999955470795)skewX(0)scale(0.9999999865388264,0.9999999865388264)" style="font-size: 10px; font-family: Impact; fill: rgb(222, 158, 214);">automatic</text><text text-anchor="middle" transform="translate(241,0)rotate(59.99999955470795)scale(0.9999999865388264,0.9999999865388264)" style="font-size: 10px; font-family: Impact; fill: rgb(214, 97, 107);">detections</text><text text-anchor="middle" transform="translate(-15,154)rotate(59.99999955470795)scale(0.9999999865388264,0.9999999865388264)" style="font-size: 10px; font-family: Impact; fill: rgb(99, 121, 57);">dynamic</text></g></svg>